<svg xmlns="http://www.w3.org/2000/svg" viewBox="0 0 400 60.297">
  <path
    d="M75.801 6.045c-5.338 1.541-5.737 3.188-5.737 23.679 0 25.306-.276 25.01 22.868 24.484 19.009-.432 18.745-.082 18.745-24.909 0-24.35.087-24.251-21.231-24.122-6.539.039-13.13.43-14.645.868m42.246 2.872v3.822H150.152l.846-2.336a134.29 134.29 0 0 1 1.448-3.821c.562-1.387-.568-1.486-16.899-1.486h-17.5v3.821m48.832-3.1c-6.188 2.012-7.134 5.083-7.181 23.319-.065 24.846-.214 24.672 21.366 25.073l15.114.281v-7.656l-12.286-.275c-16.253-.363-15.315.669-15.315-16.835 0-17.38-.826-16.419 14.602-16.985l11.568-.425 1.53-3.609 1.53-3.609-14.615.084c-8.038.047-15.379.333-16.313.637m107.665.056c-16.976.652-16.795.503-16.795 13.756 0 12.409-.155 12.274 14.772 12.813 13.047.471 13.679.793 13.679 6.99 0 7.137-.15 7.213-15.499 7.843l-13.376.549v6.528l12.951-.05c23.741-.093 23.877-.173 24.271-14.238.395-14.117.485-14.026-14.429-14.591-13.492-.512-13.451-.492-13.451-6.385 0-6.056.666-6.349 14.402-6.349 12.127 0 11.943.08 12.924-5.625.329-1.91-.548-1.966-19.449-1.241m26.942-.032c0 .41.579 2.13 1.285 3.822l1.286 3.076h15.264v41.613H328.662V12.739h15.264l1.286-3.076c.706-1.692 1.285-3.412 1.285-3.822 0-.41-10.128-.745-22.505-.745-12.378 0-22.506.335-22.506.745m69.873.032c-16.975.652-16.794.503-16.794 13.756 0 12.409-.156 12.274 14.771 12.813 13.048.471 13.679.793 13.679 6.99 0 7.137-.15 7.213-15.499 7.843l-13.376.549v6.528l12.951-.05c23.741-.093 23.878-.173 24.271-14.238.395-14.117.486-14.026-14.429-14.591-13.492-.512-13.451-.492-13.451-6.385 0-6.056.666-6.349 14.403-6.349 12.126 0 11.942.08 12.924-5.625.328-1.91-.549-1.966-19.45-1.241M10.726 25.69c-.82 10.86-1.71 21.752-1.979 24.204l-.488 4.458h4.749c5.57 0 5.056 1.303 6.505-16.502.492-6.04 1.016-11.104 1.165-11.253.149-.149 3.475 3.36 7.391 7.797 3.916 4.438 7.191 8.069 7.279 8.069.087 0 3.634-3.823 7.883-8.495 4.248-4.672 7.724-8.119 7.724-7.659 0 2.001 1.803 22.782 2.194 25.283.427 2.731.482 2.76 5.143 2.76h4.712l-.491-4.034c-.27-2.218-1.098-12.441-1.84-22.717-1.81-25.048-.532-24.089-13.45-10.087-5.98 6.482-11.132 11.884-11.449 12.005-.316.121-5.493-5.134-11.503-11.677C18.261 11.299 13.09 5.945 12.78 5.945c-.309 0-1.234 8.885-2.054 19.745m204.61 2.972c-5.968 12.495-11.041 23.196-11.273 23.78-.307.771.842 1.061 4.196 1.061h4.62l6.68-13.588c3.674-7.473 6.919-13.588 7.21-13.588.291 0 3.508 6.115 7.149 13.588l6.619 13.588h4.663c3.39 0 4.548-.29 4.241-1.061-1.94-4.871-22.252-46.497-22.689-46.497-.311 0-5.449 10.223-11.416 22.717m-115.005-14.3c3.119 2.526 3.119 27.349 0 29.874-2.933 2.375-16.835 2.376-19.77.002-4.092-3.309-3.255-28.258 1.021-30.425 3.49-1.769 16.351-1.392 18.749.549m17.716 25.978v14.012H150.152l.846-2.335a134.49 134.49 0 0 1 1.448-3.822c.557-1.376-.346-1.486-12.228-1.486h-12.829V33.121h22.08v-6.794h-31.422V40.34"
    fillRule="evenodd" />
</svg>