<svg viewBox="0 0 261 49" xmlns="http://www.w3.org/2000/svg">
  <path
    d="M46.002.941c-3.636 1.53-3.907 3.163-3.907 23.49 0 25.105-.188 24.811 15.575 24.29 12.947-.43 12.767-.082 12.767-24.711 0-24.156.059-24.058-14.46-23.93-4.454.039-8.943.427-9.975.861Zm28.773 2.85v3.791h21.866l.577-2.317c.315-1.271.644-2.535.986-3.79C98.587.097 97.817 0 86.694 0H74.775v3.79ZM108.034.715c-4.215 1.996-4.859 5.043-4.891 23.133-.044 24.648-.146 24.475 14.552 24.873l10.294.279v-7.595l-8.368-.273c-11.069-.36-10.43.664-10.43-16.7 0-17.242-.563-16.288 9.945-16.85l7.879-.422 1.042-3.58L129.099 0l-9.954.083c-5.475.047-10.475.33-11.111.632Zm73.329.056c-11.562.647-11.439.499-11.439 13.646 0 12.31-.105 12.176 10.061 12.71 8.887.468 9.317.788 9.317 6.935 0 7.08-.102 7.156-10.556 7.78l-9.11.545v6.476l8.82-.05c16.17-.092 16.263-.171 16.531-14.124.269-14.004.33-13.914-9.827-14.474-9.19-.509-9.162-.489-9.162-6.335 0-6.007.454-6.298 9.809-6.298 8.26 0 8.135.08 8.803-5.58.224-1.895-.373-1.95-13.247-1.231Zm18.35-.032c0 .407.395 2.113.875 3.792l.876 3.051h10.396v41.281h6.362V7.582h10.396l.876-3.051c.481-1.679.876-3.385.876-3.792 0-.407-6.898-.739-15.328-.739-8.431 0-15.329.332-15.329.74Zm47.59.032c-11.562.647-11.438.499-11.438 13.646 0 12.31-.107 12.176 10.06 12.71 8.887.468 9.317.788 9.317 6.935 0 7.08-.103 7.156-10.557 7.78l-9.11.545v6.476l8.821-.05c16.17-.092 16.263-.171 16.531-14.124.269-14.004.331-13.914-9.828-14.474-9.189-.509-9.161-.489-9.161-6.335 0-6.007.453-6.298 9.81-6.298 8.258 0 8.133.08 8.802-5.58.223-1.895-.374-1.95-13.247-1.231ZM1.68 20.43C1.122 31.203.516 42.008.332 44.44L0 48.864h3.234c3.794 0 3.444 1.293 4.431-16.37.335-5.992.692-11.016.793-11.164.102-.147 2.367 3.334 5.034 7.735 2.668 4.403 4.898 8.005 4.958 8.005.06 0 2.475-3.793 5.369-8.427 2.893-4.635 5.26-8.055 5.26-7.598 0 1.985 1.229 22.6 1.495 25.081.29 2.71.328 2.738 3.503 2.738h3.21l-.335-4.002c-.184-2.2-.748-12.341-1.253-22.535-1.233-24.849-.363-23.897-9.161-10.007-4.073 6.43-7.582 11.79-7.798 11.91-.215.12-3.741-5.094-7.834-11.585C6.812 6.154 3.29.842 3.079.842c-.21 0-.84 8.814-1.399 19.588Zm139.357 2.948c-4.064 12.395-7.519 23.011-7.677 23.59-.209.765.573 1.053 2.857 1.053h3.147l4.55-13.48c2.502-7.413 4.712-13.48 4.91-13.48.199 0 2.39 6.067 4.869 13.48l4.509 13.48h3.175c2.309 0 3.098-.288 2.889-1.053C162.945 42.136 149.11.842 148.813.842c-.212 0-3.711 10.142-7.776 22.536ZM62.709 9.192c2.124 2.506 2.124 27.13 0 29.636-1.998 2.356-11.466 2.357-13.465.002-2.787-3.283-2.217-28.033.695-30.183 2.377-1.754 11.137-1.38 12.77.545Zm12.066 25.77v13.901h21.866l.577-2.316c.315-1.271.644-2.535.986-3.792.38-1.365-.236-1.474-8.328-1.474h-8.738v-13.48h15.038v-6.74h-21.4v13.902Z"
    fillRule="evenodd" />
</svg>