<svg xmlns="http://www.w3.org/2000/svg" viewBox="0 0 98.581 21.66">
  <g fill-rule="evenodd">
    <path
      d="M10.11 18.15h6v3.48h-6q-2.52 0-4.26-.045-1.74-.045-2.865-.345-1.125-.3-1.725-.945-.6-.645-.885-1.845-.285-1.2-.33-3.045Q0 13.56 0 10.86v-.06q.03-2.7.075-4.53t.33-3.03q.285-1.2.9-1.845T3.03.45Q4.14.15 5.865.105 7.59.06 10.11.06h6.84L15.6 3.51h-5.49q-1.56 0-2.625.045t-1.755.24q-.69.195-1.065.645t-.54 1.275q-.165.825-.195 2.07a131.231 131.231 0 0 0-.03 3.075 131.231 131.231 0 0 0 .03 3.075q.03 1.245.195 2.055t.54 1.245q.375.435 1.065.645.69.21 1.755.24t2.625.03ZM22.44 21.54H18.3L28.5 0h.09l10.2 21.54h-4.14L28.59 9.09h-.09l-6.06 12.45ZM47.97 21.6h-7.05v-3.09h6.99q2.07-.03 3.225-.09 1.155-.06 1.71-.345.555-.285.66-.9.105-.615.105-1.725 0-1.26-.06-1.95t-.45-1.005q-.39-.315-1.2-.375-.81-.06-2.34-.06-2.16 0-3.63-.03-1.47-.03-2.43-.18-.96-.15-1.455-.48-.495-.33-.735-.945t-.27-1.545q-.03-.93-.03-2.31 0-1.62.045-2.73.045-1.11.33-1.815.285-.705.885-1.095.6-.39 1.725-.555Q45.12.21 46.86.18 48.6.15 51.12.15q1.32 0 2.88-.03 1.56-.03 3.36-.03l-1.05 3.15h-5.19q-2.34 0-3.6.06-1.26.06-1.845.36T45 4.575q-.09.615-.09 1.755-.03.9.03 1.395t.495.75q.435.255 1.395.3.96.045 2.73.045 1.98 0 3.315.03t2.205.21q.87.18 1.35.57.48.39.705 1.11.225.72.255 1.8t.03 2.67q0 1.53-.045 2.595-.045 1.065-.3 1.77-.255.705-.825 1.095t-1.62.585q-1.05.195-2.67.255-1.62.06-3.99.09ZM59.55.12h20.34l-1.35 3.39h-6.75v18.15h-4.14V3.51H60.9L59.55.12ZM89.13 21.6h-7.05v-3.09h6.99q2.07-.03 3.225-.09 1.155-.06 1.71-.345.555-.285.66-.9.105-.615.105-1.725 0-1.26-.06-1.95t-.45-1.005q-.39-.315-1.2-.375-.81-.06-2.34-.06-2.16 0-3.63-.03-1.47-.03-2.43-.18-.96-.15-1.455-.48-.495-.33-.735-.945T82.2 8.88q-.03-.93-.03-2.31 0-1.62.045-2.73.045-1.11.33-1.815.285-.705.885-1.095.6-.39 1.725-.555Q86.28.21 88.02.18q1.74-.03 4.26-.03 1.32 0 2.88-.03 1.56-.03 3.36-.03l-1.05 3.15h-5.19q-2.34 0-3.6.06-1.26.06-1.845.36t-.675.915q-.09.615-.09 1.755-.03.9.03 1.395t.495.75q.435.255 1.395.3.96.045 2.73.045 1.98 0 3.315.03t2.205.21q.87.18 1.35.57.48.39.705 1.11.225.72.255 1.8t.03 2.67q0 1.53-.045 2.595-.045 1.065-.3 1.77-.255.705-.825 1.095t-1.62.585q-1.05.195-2.67.255-1.62.06-3.99.09Z" />
  </g>
</svg>