<svg viewBox="0 0 24 24" xmlns="http://www.w3.org/2000/svg">
  <path
    d="M23 12.816a.334.334 0 0 1-.099.235l-.026.024-5.992 5.474-.037.034A1.695 1.695 0 0 1 15.72 19c-.438 0-.836-.159-1.128-.417l-.036-.034-1.814-1.656-.034-.032a1.051 1.051 0 0 0-.709-.268c-.276 0-.526.103-.707.268l-1.884 1.722A1.696 1.696 0 0 1 8.28 19c-.438 0-.845-.163-1.137-.426l-.016-.015-6.002-5.485-.025-.023a.331.331 0 0 1-.1-.235c0-.096.042-.184.112-.247l1.604-1.466a.416.416 0 0 1 .441-.065.38.38 0 0 1 .125.09c1.754 2.027 4.338 3.43 7.284 3.776.952.112 1.916.112 2.868 0 2.932-.346 5.507-1.736 7.262-3.75a.104.104 0 0 1 .017-.02.058.058 0 0 1 .01-.011.4.4 0 0 1 .29-.123c.106 0 .202.039.27.103l1.605 1.466a.33.33 0 0 1 .112.247Z" />
  <path
    d="M18 8.135a.401.401 0 0 1-.023.132l-.003.006-.018.042a.021.021 0 0 0-.002.004c-1.037 2.302-3.303 3.902-5.935 3.913h-.027c-2.628 0-4.894-1.582-5.944-3.869A.375.375 0 0 1 6 8.175c0-.1.038-.192.1-.259l.013-.014 5.648-5.792a.358.358 0 0 1 .517 0l5.615 5.76a.379.379 0 0 1 .107.265ZM13.57 20.41c0 .878-.695 1.59-1.551 1.59-.857 0-1.55-.712-1.55-1.59 0-.88.694-1.59 1.55-1.59.855 0 1.55.712 1.55 1.59Z" />
</svg>